<?xml version="1.0" encoding="UTF-8" standalone="no"?>
<svg
   xmlns:dc="http://purl.org/dc/elements/1.1/"
   xmlns:cc="http://creativecommons.org/ns#"
   xmlns:rdf="http://www.w3.org/1999/02/22-rdf-syntax-ns#"
   xmlns:svg="http://www.w3.org/2000/svg"
   xmlns="http://www.w3.org/2000/svg"
   version="1.1"
   id="svg2"
   viewBox="0 0 160.52391 95.79484"
   height="27.035433mm"
   width="45.303413mm">
  <defs
     id="defs4">
    <clipPath
       clipPathUnits="userSpaceOnUse"
       id="clipPath3362">
      <path
         d="m 0,97.943 153.667,0 L 153.667,0 0,0 0,97.943 Z"
         id="path3364" />
    </clipPath>
  </defs>
  <metadata
     id="metadata7">
    <rdf:RDF>
      <cc:Work
         rdf:about="">
        <dc:format>image/svg+xml</dc:format>
        <dc:type
           rdf:resource="http://purl.org/dc/dcmitype/StillImage" />
        <dc:title></dc:title>
      </cc:Work>
    </rdf:RDF>
  </metadata>
  <g
     transform="translate(-4.0157477e-8,-956.56738)"
     id="layer1">
    <g
       id="g3344"
       transform="matrix(1.25,0,0,-1.25,-5.3149537,1075.4523)">
      <g
         id="g3346"
         transform="translate(61.7383,66.9761)">
        <path
           d="m 0,0 0,5.057 2.626,0 0,-0.778 -1.568,0 0,-1.296 1.498,0 0,-0.777 -1.498,0 L 1.058,0 0,0 Z"
           style="fill:#cb9f18;fill-opacity:1;fill-rule:nonzero;stroke:none"
           id="path3348" />
      </g>
      <g
         id="g3350"
         transform="translate(66.7451,71.0591)">
        <path
           d="m 0,0 -0.014,0 -0.483,-2.185 1.008,0 L 0,0 Z m -2.038,-4.083 1.401,5.057 1.393,0 1.373,-5.057 -1.113,0 -0.281,1.121 -1.443,0 -0.287,-1.121 -1.043,0 z"
           style="fill:#cb9f18;fill-opacity:1;fill-rule:nonzero;stroke:none"
           id="path3352" />
      </g>
      <g
         id="g3354"
         transform="translate(71.9673,72.0327)">
        <path
           d="m 0,0 1.163,0 -1.415,-2.269 1.415,-2.788 -1.191,0 -1.212,2.592 -0.013,0 0,-2.592 -1.058,0 0,5.057 1.058,0 0,-2.164 0.013,0 L 0,0 Z"
           style="fill:#cb9f18;fill-opacity:1;fill-rule:nonzero;stroke:none"
           id="path3356" />
      </g>
      <g
         id="g3358">
        <g
           id="g3360"
           clip-path="url(#clipPath3362)">
          <g
             id="g3366"
             transform="translate(77.3789,72.0327)">
            <path
               d="m 0,0 0,-3.586 c 0,-0.756 -0.427,-1.555 -1.716,-1.555 -1.162,0 -1.723,0.602 -1.723,1.555 l 0,3.586 1.058,0 0,-3.516 c 0,-0.623 0.266,-0.868 0.651,-0.868 0.462,0 0.672,0.308 0.672,0.868 L -1.058,0 0,0 Z"
               style="fill:#cb9f18;fill-opacity:1;fill-rule:nonzero;stroke:none"
               id="path3368" />
          </g>
          <g
             id="g3370"
             transform="translate(78.5947,66.9761)">
            <path
               d="m 0,0 0,5.057 1.058,0 0,-4.217 1.583,0 L 2.641,0 0,0 Z"
               style="fill:#cb9f18;fill-opacity:1;fill-rule:nonzero;stroke:none"
               id="path3372" />
          </g>
          <g
             id="g3374"
             transform="translate(84.6523,72.0327)">
            <path
               d="m 0,0 0,-0.84 -1.176,0 0,-4.217 -1.057,0 0,4.217 -1.177,0 0,0.84 L 0,0 Z"
               style="fill:#cb9f18;fill-opacity:1;fill-rule:nonzero;stroke:none"
               id="path3376" />
          </g>
          <g
             id="g3378"
             transform="translate(86.7246,71.0591)">
            <path
               d="m 0,0 -0.014,0 -0.483,-2.185 1.009,0 L 0,0 Z m -2.038,-4.083 1.401,5.057 1.394,0 1.373,-5.057 -1.114,0 -0.281,1.121 -1.442,0 -0.287,-1.121 -1.044,0 z"
               style="fill:#cb9f18;fill-opacity:1;fill-rule:nonzero;stroke:none"
               id="path3380" />
          </g>
          <g
             id="g3382"
             transform="translate(63.4121,61.0591)">
            <path
               d="m 0,0 -0.014,0 -0.484,-2.185 1.009,0 L 0,0 Z m -2.038,-4.083 1.4,5.057 1.394,0 1.373,-5.057 -1.113,0 -0.281,1.121 -1.443,0 -0.287,-1.121 -1.043,0 z"
               style="fill:#cb9f18;fill-opacity:1;fill-rule:nonzero;stroke:none"
               id="path3384" />
          </g>
          <g
             id="g3386"
             transform="translate(67.4507,59.8125)">
            <path
               d="m 0,0 0.588,0 c 0.315,0 0.533,0.343 0.533,0.68 0,0.413 -0.113,0.763 -0.589,0.763 L 0,1.443 0,0 Z m -1.058,2.22 1.905,0 c 0.967,0 1.345,-0.588 1.345,-1.512 0,-0.575 -0.168,-1.485 -1.408,-1.485 l -0.784,0 0,-2.059 -1.058,0 0,5.056 z"
               style="fill:#cb9f18;fill-opacity:1;fill-rule:nonzero;stroke:none"
               id="path3388" />
          </g>
          <g
             id="g3390"
             transform="translate(70.355,56.9761)">
            <path
               d="m 0,0 0,5.057 1.058,0 0,-4.217 1.583,0 L 2.641,0 0,0 Z"
               style="fill:#cb9f18;fill-opacity:1;fill-rule:nonzero;stroke:none"
               id="path3392" />
          </g>
          <path
             d="m 73.806,62.033 1.057,0 0,-5.057 -1.057,0 0,5.057 z"
             style="fill:#cb9f18;fill-opacity:1;fill-rule:nonzero;stroke:none"
             id="path3394" />
          <g
             id="g3396"
             transform="translate(78.3496,62.0327)">
            <path
               d="m 0,0 1.163,0 -1.415,-2.269 1.415,-2.788 -1.19,0 -1.212,2.592 -0.014,0 0,-2.592 -1.058,0 0,5.057 1.058,0 0,-2.164 0.014,0 L 0,0 Z"
               style="fill:#cb9f18;fill-opacity:1;fill-rule:nonzero;stroke:none"
               id="path3398" />
          </g>
          <g
             id="g3400"
             transform="translate(82.5361,59.5044)">
            <path
               d="m 0,0 c 0,1.296 -0.077,1.856 -0.672,1.856 -0.596,0 -0.673,-0.56 -0.673,-1.856 0,-1.295 0.077,-1.856 0.673,-1.856 C -0.077,-1.856 0,-1.295 0,0 m -2.416,0 c 0,1.338 0,2.612 1.744,2.612 1.743,0 1.743,-1.274 1.743,-2.612 0,-1.324 0,-2.612 -1.743,-2.612 -1.744,0 -1.744,1.288 -1.744,2.612"
               style="fill:#cb9f18;fill-opacity:1;fill-rule:nonzero;stroke:none"
               id="path3402" />
          </g>
          <g
             id="g3404"
             transform="translate(84.2148,62.0327)">
            <path
               d="m 0,0 1.1,0 0.784,-3.677 0.014,0 L 2.78,0 3.824,0 2.486,-5.057 l -1.24,0 L 0,0 Z"
               style="fill:#cb9f18;fill-opacity:1;fill-rule:nonzero;stroke:none"
               id="path3406" />
          </g>
          <g
             id="g3408"
             transform="translate(90.1592,61.0591)">
            <path
               d="m 0,0 -0.015,0 -0.483,-2.185 1.009,0 L 0,0 Z m -2.039,-4.083 1.401,5.057 1.394,0 1.373,-5.057 -1.114,0 -0.281,1.121 -1.442,0 -0.287,-1.121 -1.044,0 z"
               style="fill:#cb9f18;fill-opacity:1;fill-rule:nonzero;stroke:none"
               id="path3410" />
          </g>
          <g
             id="g3412"
             transform="translate(93.1396,56.9761)">
            <path
               d="m 0,0 0,5.057 1.429,0 1.345,-3.502 0.013,0 0,3.502 0.988,0 0,-5.057 -1.393,0 -1.38,3.698 -0.015,0 L 0.987,0 0,0 Z"
               style="fill:#cb9f18;fill-opacity:1;fill-rule:nonzero;stroke:none"
               id="path3414" />
          </g>
          <g
             id="g3416"
             transform="translate(100.624,63.0483)">
            <path
               d="m 0,0 -0.98,-0.763 -0.721,0 L -1.071,0 0,0 Z m -1.716,-4.321 -1.323,3.305 1.155,0 0.757,-2.136 0.805,2.136 1.079,0 -1.415,-3.305 0,-1.751 -1.058,0 0,1.751 z"
               style="fill:#cb9f18;fill-opacity:1;fill-rule:nonzero;stroke:none"
               id="path3418" />
          </g>
          <g
             id="g3420"
             transform="translate(101.8193,59.5044)">
            <path
               d="m 0,0 c 0,1.338 0,2.612 1.744,2.612 1.079,0 1.514,-0.595 1.472,-1.68 l -1.037,0 C 2.179,1.604 2.06,1.856 1.744,1.856 1.149,1.856 1.071,1.296 1.071,0 c 0,-1.295 0.078,-1.856 0.673,-1.856 0.491,0 0.469,0.63 0.484,1.03 l 1.043,0 C 3.271,-2.178 2.732,-2.612 1.744,-2.612 0,-2.612 0,-1.324 0,0"
               style="fill:#cb9f18;fill-opacity:1;fill-rule:nonzero;stroke:none"
               id="path3422" />
          </g>
          <g
             id="g3424"
             transform="translate(108.415,60.0088)">
            <path
               d="m 0,0 0,2.024 1.058,0 0,-5.057 -1.058,0 0,2.256 -1.212,0 0,-2.256 -1.057,0 0,5.057 1.057,0 L -1.212,0 0,0 Z"
               style="fill:#cb9f18;fill-opacity:1;fill-rule:nonzero;stroke:none"
               id="path3426" />
          </g>
          <g
             id="g3428"
             transform="translate(112.2354,62.0327)">
            <path
               d="m 0,0 1.1,0 0.784,-3.677 0.013,0 L 2.78,0 3.824,0 2.486,-5.057 l -1.24,0 L 0,0 Z"
               style="fill:#cb9f18;fill-opacity:1;fill-rule:nonzero;stroke:none"
               id="path3430" />
          </g>
          <g
             id="g3432"
             transform="translate(118.8379,63.0483)">
            <path
               d="m 0,0 0.791,0 -0.707,-0.763 -1.156,0 L -1.779,0 -0.988,0 -0.49,-0.413 0,0 Z m -1.954,-6.072 0,5.056 2.76,0 0,-0.777 -1.702,0 0,-1.247 1.569,0 0,-0.777 -1.569,0 0,-1.478 1.757,0 0,-0.777 -2.815,0 z"
               style="fill:#cb9f18;fill-opacity:1;fill-rule:nonzero;stroke:none"
               id="path3434" />
          </g>
          <g
             id="g3436"
             transform="translate(121.8115,57.7534)">
            <path
               d="m 0,0 0.512,0 c 0.644,0 0.77,0.483 0.77,1.751 0,0.932 0,1.751 -0.735,1.751 L 0,3.502 0,0 Z m -1.058,4.279 1.766,0 c 1.387,0 1.646,-0.924 1.646,-2.5 0,-0.778 0.12,-2.556 -1.688,-2.556 l -1.724,0 0,5.056 z"
               style="fill:#cb9f18;fill-opacity:1;fill-rule:nonzero;stroke:none"
               id="path3438" />
          </g>
          <g
             id="g3440"
             transform="translate(61.5698,52.0327)">
            <path
               d="m 0,0 3.047,0 0,-0.917 -2.13,-3.363 2.179,0 0,-0.776 -3.194,0 0,0.924 2.122,3.355 L 0,-0.777 0,0 Z"
               style="fill:#918f90;fill-opacity:1;fill-rule:nonzero;stroke:none"
               id="path3442" />
          </g>
          <g
             id="g3444"
             transform="translate(67.2622,51.0591)">
            <path
               d="m 0,0 -0.014,0 -0.484,-2.185 1.009,0 L 0,0 Z m 1.05,1.989 -0.98,-0.763 -0.721,0 0.63,0.763 1.071,0 z m -3.088,-6.072 1.4,5.057 1.394,0 1.373,-5.057 -1.114,0 -0.28,1.121 -1.443,0 -0.287,-1.121 -1.043,0 z"
               style="fill:#918f90;fill-opacity:1;fill-rule:nonzero;stroke:none"
               id="path3446" />
          </g>
          <g
             id="g3448"
             transform="translate(71.3008,49.8125)">
            <path
               d="m 0,0 0.588,0 c 0.315,0 0.533,0.343 0.533,0.68 0,0.413 -0.113,0.763 -0.589,0.763 L 0,1.443 0,0 Z m -1.058,2.22 1.905,0 c 0.967,0 1.345,-0.588 1.345,-1.512 0,-0.575 -0.168,-1.485 -1.408,-1.485 l -0.784,0 0,-2.059 -1.058,0 0,5.056 z"
               style="fill:#918f90;fill-opacity:1;fill-rule:nonzero;stroke:none"
               id="path3450" />
          </g>
          <g
             id="g3452"
             transform="translate(75.7808,51.0591)">
            <path
               d="m 0,0 -0.014,0 -0.483,-2.185 1.008,0 L 0,0 Z m -2.038,-4.083 1.401,5.057 1.394,0 1.372,-5.057 -1.113,0 -0.281,1.121 -1.442,0 -0.287,-1.121 -1.044,0 z"
               style="fill:#918f90;fill-opacity:1;fill-rule:nonzero;stroke:none"
               id="path3454" />
          </g>
          <g
             id="g3456"
             transform="translate(79.834,47.7529)">
            <path
               d="m 0,0 0.511,0 c 0.644,0 0.77,0.484 0.77,1.751 0,0.932 0,1.751 -0.735,1.751 L 0,3.502 0,0 Z m -1.058,4.28 1.765,0 c 1.387,0 1.646,-0.925 1.646,-2.501 0,-0.777 0.12,-2.555 -1.688,-2.555 l -1.723,0 0,5.056 z"
               style="fill:#918f90;fill-opacity:1;fill-rule:nonzero;stroke:none"
               id="path3458" />
          </g>
          <g
             id="g3460"
             transform="translate(85.749,49.5044)">
            <path
               d="m 0,0 c 0,1.296 -0.076,1.856 -0.672,1.856 -0.596,0 -0.673,-0.56 -0.673,-1.856 0,-1.295 0.077,-1.856 0.673,-1.856 C -0.076,-1.856 0,-1.295 0,0 m -2.416,0 c 0,1.338 0,2.612 1.744,2.612 1.743,0 1.743,-1.274 1.743,-2.612 0,-1.324 0,-2.613 -1.743,-2.613 -1.744,0 -1.744,1.289 -1.744,2.613"
               style="fill:#918f90;fill-opacity:1;fill-rule:nonzero;stroke:none"
               id="path3462" />
          </g>
          <g
             id="g3464"
             transform="translate(90.1807,53.0483)">
            <path
               d="m 0,0 0.791,0 -0.707,-0.763 -1.156,0 L -1.779,0 -0.988,0 -0.491,-0.413 0,0 Z m -2.221,-3.544 c 0,1.338 0,2.612 1.743,2.612 1.08,0 1.514,-0.595 1.472,-1.68 l -1.036,0 c 0,0.672 -0.12,0.924 -0.436,0.924 -0.594,0 -0.671,-0.56 -0.671,-1.856 0,-1.295 0.077,-1.856 0.671,-1.856 0.491,0 0.47,0.63 0.484,1.03 l 1.044,0 c 0,-1.352 -0.539,-1.787 -1.528,-1.787 -1.743,0 -1.743,1.289 -1.743,2.613"
               style="fill:#918f90;fill-opacity:1;fill-rule:nonzero;stroke:none"
               id="path3466" />
          </g>
          <g
             id="g3468"
             transform="translate(92.251,46.9766)">
            <path
               d="m 0,0 0,5.056 2.76,0 0,-0.777 -1.702,0 0,-1.247 1.568,0 0,-0.777 -1.568,0 0,-1.479 1.757,0 L 2.815,0 0,0 Z"
               style="fill:#918f90;fill-opacity:1;fill-rule:nonzero;stroke:none"
               id="path3470" />
          </g>
          <g
             id="g3472"
             transform="translate(97.4736,46.8916)">
            <path
               d="m 0,0 c -1.31,0 -1.555,0.771 -1.499,1.646 l 1.058,0 c 0,-0.483 0.02,-0.889 0.602,-0.889 0.358,0 0.532,0.23 0.532,0.574 0,0.911 -2.129,0.967 -2.129,2.473 0,0.791 0.378,1.421 1.667,1.421 1.03,0 1.54,-0.462 1.471,-1.519 l -1.029,0 c 0,0.377 -0.064,0.763 -0.49,0.763 -0.344,0 -0.547,-0.189 -0.547,-0.539 0,-0.96 2.13,-0.876 2.13,-2.466 C 1.766,0.154 0.806,0 0,0"
               style="fill:#918f90;fill-opacity:1;fill-rule:nonzero;stroke:none"
               id="path3474" />
          </g>
          <g
             id="g3476"
             transform="translate(102.5908,52.0327)">
            <path
               d="m 0,0 1.163,0 -1.415,-2.269 1.415,-2.787 -1.19,0 -1.212,2.591 -0.015,0 0,-2.591 -1.057,0 0,5.056 1.057,0 0,-2.164 0.015,0 L 0,0 Z"
               style="fill:#918f90;fill-opacity:1;fill-rule:nonzero;stroke:none"
               id="path3478" />
          </g>
          <g
             id="g3480"
             transform="translate(107.2041,53.0483)">
            <path
               d="m 0,0 -0.98,-0.763 -0.722,0 L -1.071,0 0,0 Z m -2.619,-6.072 0,5.056 2.759,0 0,-0.777 -1.702,0 0,-1.247 1.569,0 0,-0.777 -1.569,0 0,-1.478 1.758,0 0,-0.777 -2.815,0 z"
               style="fill:#918f90;fill-opacity:1;fill-rule:nonzero;stroke:none"
               id="path3482" />
          </g>
          <g
             id="g3484"
             transform="translate(65.1768,42.0322)">
            <path
               d="m 0,0 0,-3.585 c 0,-0.757 -0.427,-1.556 -1.716,-1.556 -1.162,0 -1.722,0.603 -1.722,1.556 l 0,3.585 1.057,0 0,-3.516 c 0,-0.623 0.266,-0.868 0.652,-0.868 0.461,0 0.671,0.309 0.671,0.868 L -1.058,0 0,0 Z"
               style="fill:#918f90;fill-opacity:1;fill-rule:nonzero;stroke:none"
               id="path3486" />
          </g>
          <g
             id="g3488"
             transform="translate(66.3931,36.9766)">
            <path
               d="m 0,0 0,5.056 1.429,0 1.344,-3.501 0.015,0 0,3.501 0.987,0 0,-5.056 -1.394,0 -1.38,3.697 -0.014,0 L 0.987,0 0,0 Z"
               style="fill:#918f90;fill-opacity:1;fill-rule:nonzero;stroke:none"
               id="path3490" />
          </g>
          <path
             d="m 71.405,42.032 1.058,0 0,-5.056 -1.058,0 0,5.056 z"
             style="fill:#918f90;fill-opacity:1;fill-rule:nonzero;stroke:none"
             id="path3492" />
          <g
             id="g3494"
             transform="translate(73.2949,42.0322)">
            <path
               d="m 0,0 1.1,0 0.784,-3.676 0.014,0 L 2.78,0 3.824,0 2.486,-5.056 1.247,-5.056 0,0 Z"
               style="fill:#918f90;fill-opacity:1;fill-rule:nonzero;stroke:none"
               id="path3496" />
          </g>
          <g
             id="g3498"
             transform="translate(77.9429,36.9766)">
            <path
               d="m 0,0 0,5.056 2.759,0 0,-0.777 -1.701,0 0,-1.247 1.568,0 0,-0.777 -1.568,0 0,-1.479 1.757,0 L 2.815,0 0,0 Z"
               style="fill:#918f90;fill-opacity:1;fill-rule:nonzero;stroke:none"
               id="path3500" />
          </g>
          <g
             id="g3502"
             transform="translate(82.8301,39.8477)">
            <path
               d="m 0,0 0.469,0 c 0.42,0 0.539,0.421 0.539,0.742 0,0.484 -0.203,0.666 -0.539,0.666 L 0,1.408 0,0 Z m 0,-2.871 -1.058,0 0,5.056 1.954,0 c 0.721,0 1.184,-0.462 1.184,-1.324 0,-0.643 -0.253,-1.127 -0.938,-1.239 l 0,-0.014 c 0.23,-0.028 0.917,-0.084 0.917,-0.995 0,-0.322 0.021,-1.274 0.119,-1.484 l -1.036,0 c -0.141,0.308 -0.113,0.651 -0.113,0.98 0,0.603 0.056,1.114 -0.757,1.114 l -0.272,0 0,-2.094 z"
               style="fill:#918f90;fill-opacity:1;fill-rule:nonzero;stroke:none"
               id="path3504" />
          </g>
          <g
             id="g3506"
             transform="translate(85.8457,42.0322)">
            <path
               d="m 0,0 3.047,0 0,-0.917 -2.129,-3.362 2.178,0 0,-0.777 -3.194,0 0,0.924 2.122,3.356 L 0,-0.776 0,0 Z"
               style="fill:#918f90;fill-opacity:1;fill-rule:nonzero;stroke:none"
               id="path3508" />
          </g>
          <path
             d="m 89.885,42.032 1.058,0 0,-5.056 -1.058,0 0,5.056 z"
             style="fill:#918f90;fill-opacity:1;fill-rule:nonzero;stroke:none"
             id="path3510" />
          <g
             id="g3512"
             transform="translate(95.1924,42.0322)">
            <path
               d="m 0,0 0,-0.84 -1.177,0 0,-4.216 -1.056,0 0,4.216 -1.178,0 0,0.84 L 0,0 Z"
               style="fill:#918f90;fill-opacity:1;fill-rule:nonzero;stroke:none"
               id="path3514" />
          </g>
          <g
             id="g3516"
             transform="translate(96.6123,38.7275)">
            <path
               d="m 0,0 -1.323,3.305 1.155,0 0.757,-2.136 0.805,2.136 1.079,0 L 1.058,0 1.058,-1.751 0,-1.751 0,0 Z"
               style="fill:#918f90;fill-opacity:1;fill-rule:nonzero;stroke:none"
               id="path3518" />
          </g>
          <g
             id="g3520"
             transform="translate(61.353,32.0322)">
            <path
               d="m 0,0 1.1,0 0.784,-3.676 0.014,0 L 2.78,0 3.824,0 2.486,-5.056 1.247,-5.056 0,0 Z"
               style="fill:#918f90;fill-opacity:1;fill-rule:nonzero;stroke:none"
               id="path3522" />
          </g>
          <g
             id="g3524"
             transform="translate(68.9697,29.8125)">
            <path
               d="m 0,0 0.588,0 c 0.315,0 0.533,0.344 0.533,0.68 0,0.413 -0.113,0.763 -0.589,0.763 L 0,1.443 0,0 Z m -1.058,2.22 1.905,0 c 0.967,0 1.345,-0.588 1.345,-1.513 0,-0.574 -0.168,-1.484 -1.408,-1.484 l -0.784,0 0,-2.059 -1.058,0 0,5.056 z"
               style="fill:#918f90;fill-opacity:1;fill-rule:nonzero;stroke:none"
               id="path3526" />
          </g>
          <g
             id="g3528"
             transform="translate(71.8042,26.9766)">
            <path
               d="m 0,0 0,5.056 1.058,0 0,-4.216 1.582,0 L 2.64,0 0,0 Z"
               style="fill:#918f90;fill-opacity:1;fill-rule:nonzero;stroke:none"
               id="path3530" />
          </g>
          <g
             id="g3532"
             transform="translate(75.0659,32.0322)">
            <path
               d="m 0,0 3.046,0 0,-0.917 -2.129,-3.362 2.178,0 0,-0.777 -3.193,0 0,0.924 2.122,3.356 L 0,-0.776 0,0 Z"
               style="fill:#918f90;fill-opacity:1;fill-rule:nonzero;stroke:none"
               id="path3534" />
          </g>
          <g
             id="g3536"
             transform="translate(79.1113,26.9766)">
            <path
               d="m 0,0 0,5.056 1.429,0 1.345,-3.501 0.014,0 0,3.501 0.987,0 0,-5.056 -1.393,0 -1.38,3.697 -0.014,0 L 0.988,0 0,0 Z"
               style="fill:#918f90;fill-opacity:1;fill-rule:nonzero;stroke:none"
               id="path3538" />
          </g>
          <path
             d="m 84.124,32.032 1.058,0 0,-5.056 -1.058,0 0,5.056 z"
             style="fill:#918f90;fill-opacity:1;fill-rule:nonzero;stroke:none"
             id="path3540" />
          <g
             id="g3542"
             transform="translate(44.8545,68.0708)">
            <path
               d="M 0,0 0,-11.127 9.634,-5.561 0,0 Z"
               style="fill:#cb9f18;fill-opacity:1;fill-rule:nonzero;stroke:none"
               id="path3544" />
          </g>
          <g
             id="g3546"
             transform="translate(12.7559,38.415)">
            <path
               d="m 0,0 14.009,8.087 c -3.914,1.309 -6.731,4.219 -6.78,9.251 l 0,16.648 7.206,0 0,-16.289 c 0.108,-3.315 1.839,-5.405 5.228,-5.405 0.959,0 1.778,0.175 2.473,0.488 l 0.757,0.438 c 1.264,0.915 1.929,2.471 1.996,4.479 l 0,16.113 0.017,0 L 0,48.189 0,0 Z"
               style="fill:#c8c7c7;fill-opacity:1;fill-rule:nonzero;stroke:none"
               id="path3548" />
          </g>
        </g>
      </g>
      <g
         id="g3550"
         transform="translate(124.415,59.6719)" />
      <g
         id="g3554"
         transform="translate(135.54,59.6719)" />
      <g
         id="g3558"
         transform="translate(1.6182,86.5938)" />
      <g
         id="g3562"
         transform="translate(12.7119,86.6182)" />
      <g
         id="g3566"
         transform="translate(57.79,17.6094)" />
      <g
         id="g3570"
         transform="translate(57.7744,8)" />
      <g
         id="g3574"
         transform="translate(7.4307,29.0625)" />
      <g
         id="g3578"
         transform="translate(7.415,19.4531)" />
    </g>
  </g>
</svg>
