<?xml version="1.0" encoding="UTF-8" standalone="no"?>
<!-- Created with Inkscape (http://www.inkscape.org/) -->

<svg
   xmlns:dc="http://purl.org/dc/elements/1.1/"
   xmlns:cc="http://creativecommons.org/ns#"
   xmlns:rdf="http://www.w3.org/1999/02/22-rdf-syntax-ns#"
   xmlns:svg="http://www.w3.org/2000/svg"
   xmlns="http://www.w3.org/2000/svg"
   xmlns:xlink="http://www.w3.org/1999/xlink"
   xmlns:sodipodi="http://sodipodi.sourceforge.net/DTD/sodipodi-0.dtd"
   xmlns:inkscape="http://www.inkscape.org/namespaces/inkscape"
   width="192"
   height="192"
   viewBox="0 0 192 192"
   id="svg2"
   version="1.1"
   inkscape:version="0.91 r13725"
   sodipodi:docname="kc_compass.svg"
   inkscape:export-filename="C:\Users\qwerty\compass_400.png"
   inkscape:export-xdpi="187.5"
   inkscape:export-ydpi="187.5">
  <defs
     id="defs4">
    <linearGradient
       inkscape:collect="always"
       id="linearGradient4332">
      <stop
         style="stop-color:#000000;stop-opacity:1;"
         offset="0"
         id="stop4334" />
      <stop
         style="stop-color:#e81705;stop-opacity:1"
         offset="1"
         id="stop4336" />
    </linearGradient>
    <linearGradient
       inkscape:collect="always"
       id="linearGradient4227">
      <stop
         style="stop-color:#ffea17;stop-opacity:1"
         offset="0"
         id="stop4229" />
      <stop
         id="stop4239"
         offset="0.12991367"
         style="stop-color:#fff8e3;stop-opacity:1" />
      <stop
         id="stop4235"
         offset="0.25982735"
         style="stop-color:#ffd272;stop-opacity:1;" />
      <stop
         style="stop-color:#ffbe4d;stop-opacity:1;"
         offset="0.41846141"
         id="stop4237" />
      <stop
         style="stop-color:#fff5c6;stop-opacity:1"
         offset="1"
         id="stop4231" />
    </linearGradient>
    <linearGradient
       inkscape:collect="always"
       xlink:href="#linearGradient4227"
       id="linearGradient4219"
       x1="1.3199165"
       y1="981.49762"
       x2="192.33736"
       y2="956.36218"
       gradientUnits="userSpaceOnUse"
       gradientTransform="matrix(0.9040735,0,0,0.90416101,9.2089549,91.656736)" />
    <linearGradient
       inkscape:collect="always"
       xlink:href="#linearGradient4332"
       id="linearGradient4338"
       x1="95.979073"
       y1="98.209702"
       x2="95.979073"
       y2="94.232239"
       gradientUnits="userSpaceOnUse"
       gradientTransform="translate(0,860.36216)" />
  </defs>
  <sodipodi:namedview
     id="base"
     pagecolor="#ffffff"
     bordercolor="#666666"
     borderopacity="1.0"
     inkscape:pageopacity="0.0"
     inkscape:pageshadow="2"
     inkscape:zoom="2.8284271"
     inkscape:cx="97.464249"
     inkscape:cy="63.96055"
     inkscape:document-units="px"
     inkscape:current-layer="layer1"
     showgrid="false"
     units="px"
     showborder="true"
     inkscape:window-width="1920"
     inkscape:window-height="1017"
     inkscape:window-x="1672"
     inkscape:window-y="83"
     inkscape:window-maximized="1"
     showguides="false" />
  <metadata
     id="metadata7">
    <rdf:RDF>
      <cc:Work
         rdf:about="">
        <dc:format>image/svg+xml</dc:format>
        <dc:type
           rdf:resource="http://purl.org/dc/dcmitype/StillImage" />
        <dc:title></dc:title>
      </cc:Work>
    </rdf:RDF>
  </metadata>
  <g
     inkscape:label="Vrstva 1"
     inkscape:groupmode="layer"
     id="layer1"
     transform="translate(0,-860.36216)">
    <ellipse
       style="fill:#dcdcdc;fill-opacity:0.75294118;stroke:none;stroke-width:1;stroke-linecap:square;stroke-miterlimit:100;stroke-dasharray:none;stroke-opacity:1"
       id="path4347"
       cx="96"
       cy="956.36218"
       rx="87.021515"
       ry="87.029938" />
    <ellipse
       style="fill:none;fill-opacity:1;stroke:#b3b3b3;stroke-width:1.80823457;stroke-miterlimit:4;stroke-dasharray:none;stroke-opacity:1"
       id="path4241"
       cx="96"
       cy="956.36218"
       rx="63.126221"
       ry="63.132339" />
    <g
       id="g4192"
       transform="matrix(0.90407344,0,0,0.90416101,9.2089502,91.656784)">
      <path
         style="fill:#b3b3b3;fill-opacity:1"
         d="m 95.5,29.255859 0,9.279297 c -3.491307,0.02992 -6.906065,0.375575 -10.222656,1.001953 l -1.808594,-9.095703 -0.980469,0.195313 1.806641,9.082031 c -3.397221,0.703188 -6.679016,1.718077 -9.828125,2.992188 l -3.546875,-8.564454 -0.923828,0.38086 3.542968,8.554687 c -3.175459,1.349803 -6.198326,2.985069 -9.050781,4.859375 l -5.154297,-7.714844 -0.830078,0.556641 5.150391,7.707031 c -2.838569,1.936465 -5.490923,4.122737 -7.933594,6.523438 l -6.5625,-6.5625 -0.707031,0.707031 6.5625,6.5625 c -2.400825,2.442567 -4.58686,5.095119 -6.523438,7.933594 l -7.707031,-5.150391 -0.556641,0.830078 7.712891,5.154297 c -1.874238,2.852169 -3.509587,5.875637 -4.859375,9.050781 l -8.552734,-3.542968 -0.38086,0.923828 8.5625,3.546875 c -1.274035,3.148737 -2.287041,6.431293 -2.990234,9.828125 l -9.082031,-1.806641 -0.195313,0.980469 9.09375,1.808594 C 38.908714,88.593996 38.563107,92.00858 38.533203,95.5 l -9.277344,0 0,1 9.277344,0 c 0.02992,3.491307 0.375531,6.90607 1.001953,10.22266 l -9.09375,1.80859 0.195313,0.98047 9.082031,-1.80664 c 0.703317,3.39745 1.715886,6.67882 2.990234,9.82812 l -8.5625,3.54688 0.38086,0.92383 8.552734,-3.54297 c 1.349656,3.17465 2.985449,6.19703 4.859375,9.04883 l -7.712891,5.15429 0.556641,0.83203 7.707031,-5.15039 c 1.936355,2.83809 4.122984,5.4913 6.523438,7.9336 l -6.5625,6.5625 0.707031,0.70703 6.5625,-6.5625 c 2.442623,2.40074 5.095092,4.58691 7.933594,6.52344 l -5.150391,7.70703 0.830078,0.55664 5.154297,-7.71485 c 2.852455,1.87441 5.875322,3.50949 9.050781,4.85938 l -3.542968,8.55469 0.923828,0.38086 3.546875,-8.56446 c 3.148982,1.27414 6.43105,2.28896 9.828125,2.99219 l -1.806641,9.08203 0.980469,0.19531 1.808594,-9.0957 c 3.316651,0.62645 6.731281,0.97203 10.222656,1.00195 l 0,9.2793 1,0 0,-9.2793 c 3.491375,-0.0299 6.906,-0.3755 10.22266,-1.00195 l 1.80859,9.0957 0.98047,-0.19531 -1.80664,-9.08203 c 3.39707,-0.70323 6.67914,-1.71805 9.82812,-2.99219 l 3.54688,8.56446 0.92383,-0.38086 -3.54297,-8.55469 c 3.17462,-1.34953 6.19703,-2.98364 9.04883,-4.85742 l 5.15429,7.71289 0.83203,-0.55664 -5.15039,-7.70703 c 2.8385,-1.93653 5.49097,-4.1227 7.9336,-6.52344 l 6.5625,6.5625 0.70703,-0.70703 -6.5625,-6.5625 c 2.40045,-2.4423 4.58708,-5.09551 6.52344,-7.9336 l 7.70703,5.15039 0.55664,-0.83203 -7.71289,-5.15429 c 1.87392,-2.8518 3.50972,-5.87418 4.85937,-9.04883 l 8.55274,3.54297 0.38086,-0.92383 -8.5625,-3.54688 c 1.27434,-3.1493 2.28691,-6.43067 2.99023,-9.82812 l 9.08203,1.80664 0.19531,-0.98047 -9.09375,-1.80859 c 0.62643,-3.31659 0.97203,-6.731353 1.00196,-10.22266 l 9.27734,0 0,-1 -9.27734,0 c -0.0299,-3.49142 -0.37551,-6.906004 -1.00196,-10.222656 l 9.09375,-1.808594 -0.19531,-0.980469 -9.08203,1.806641 c -0.70319,-3.396832 -1.7162,-6.679388 -2.99023,-9.828125 l 8.5625,-3.546875 -0.38086,-0.923828 -8.55274,3.542968 c -1.34979,-3.175144 -2.98514,-6.198612 -4.85937,-9.050781 l 7.71289,-5.154297 -0.55664,-0.830078 -7.70703,5.150391 c -1.93658,-2.838475 -4.12262,-5.491027 -6.52344,-7.933594 l 6.5625,-6.5625 -0.70703,-0.707031 -6.5625,6.5625 c -2.44267,-2.400701 -5.09503,-4.586973 -7.9336,-6.523438 l 5.15039,-7.707031 -0.83203,-0.556641 -5.15429,7.712891 c -2.8518,-1.873682 -5.87421,-3.507975 -9.04883,-4.857422 l 3.54297,-8.554687 -0.92383,-0.38086 -3.54688,8.564454 c -3.14911,-1.274111 -6.4309,-2.289 -9.82812,-2.992188 l 1.80664,-9.082031 -0.98047,-0.195313 -1.80859,9.095703 C 103.40606,38.910731 99.991307,38.565076 96.5,38.535156 l 0,-9.279297 -1,0 z m 0,10.279297 0,44.859375 a 11.623067,11.623067 0 0 1 0.5,-0.01758 11.623067,11.623067 0 0 1 0.5,0.02539 l 0,-44.867188 c 3.424611,0.02984 6.77421,0.369149 10.02734,0.982422 l -8.755856,44.009766 a 11.623067,11.623067 0 0 1 0.980469,0.195312 l 8.757817,-44.023437 c 3.33327,0.689811 6.55271,1.682791 9.64257,2.93164 L 99.976562,85.09375 a 11.623067,11.623067 0 0 1 0.923828,0.382812 l 17.17969,-41.474609 c 3.11444,1.323732 6.07902,2.928448 8.87695,4.765625 l -24.93164,37.310547 a 11.623067,11.623067 0 0 1 0.83399,0.554687 l 24.93359,-37.314453 c 2.78443,1.899674 5.38678,4.043937 7.7832,6.398438 l -31.72851,31.728515 a 11.623067,11.623067 0 0 1 0.70898,0.705079 L 136.2832,56.423828 c 2.35462,2.396312 4.49866,4.998884 6.39844,7.783203 l -37.31641,24.933594 a 11.623067,11.623067 0 0 1 0.5586,0.830078 l 37.30859,-24.929687 c 1.83766,2.798229 3.44159,5.764036 4.76563,8.878906 l -41.47266,17.179687 a 11.623067,11.623067 0 0 1 0.38477,0.921875 l 41.46093,-17.173828 c 1.24885,3.089647 2.24182,6.309511 2.93164,9.642578 l -44.02343,8.75586 a 11.623067,11.623067 0 0 1 0.19922,0.980468 l 44.00586,-8.753906 c 0.61326,3.253007 0.95064,6.602836 0.98046,10.027344 l -44.85937,0 a 11.623067,11.623067 0 0 1 0.0176,0.5 11.623067,11.623067 0 0 1 -0.0254,0.5 l 44.86718,0 c -0.0298,3.425055 -0.36699,6.77381 -0.98046,10.02734 l -44.01172,-8.753902 a 11.623067,11.623067 0 0 1 -0.19532,0.978515 l 44.02539,8.757817 c -0.68989,3.33288 -1.68475,6.55306 -2.93359,9.64257 l -41.4629,-17.175778 a 11.623067,11.623067 0 0 1 -0.38086,0.923828 l 41.47266,17.17969 c -1.32388,3.11458 -2.92824,6.07891 -4.76563,8.87695 l -37.31054,-24.92969 a 11.623067,11.623067 0 0 1 -0.55469,0.83204 l 37.31445,24.93359 c -1.89976,2.78437 -4.04386,5.38682 -6.39844,7.7832 l -31.72851,-31.72851 a 11.623067,11.623067 0 0 1 -0.70508,0.70898 l 31.72656,31.72656 c -2.39638,2.35455 -4.99884,4.49871 -7.7832,6.39844 l -24.93164,-37.31641 a 11.623067,11.623067 0 0 1 -0.83203,0.56055 l 24.92773,37.30664 c -2.79793,1.83728 -5.76251,3.44181 -8.87695,4.76563 l -17.17969,-41.47266 a 11.623067,11.623067 0 0 1 -0.921874,0.38477 l 17.173824,41.45898 c -3.08986,1.24893 -6.3093,2.24178 -9.64257,2.93164 L 98.751953,107.2793 a 11.623067,11.623067 0 0 1 -0.978515,0.19922 l 8.753902,44.0039 c -3.25312,0.61332 -6.602743,0.95258 -10.02734,0.98242 l 0,-44.85937 a 11.623067,11.623067 0 0 1 -0.5,0.0176 11.623067,11.623067 0 0 1 -0.5,-0.0254 l 0,44.86718 c -3.424597,-0.0298 -6.774218,-0.3691 -10.027344,-0.98242 l 8.75586,-44.00976 a 11.623067,11.623067 0 0 1 -0.982422,-0.19532 l -8.75586,44.02344 c -3.333278,-0.68986 -6.552714,-1.68271 -9.642578,-2.93164 l 17.175782,-41.46289 a 11.623067,11.623067 0 0 1 -0.923829,-0.38281 l -17.179687,41.47461 c -3.114955,-1.32403 -6.080572,-2.92797 -8.878906,-4.76563 l 24.929687,-37.31054 a 11.623067,11.623067 0 0 1 -0.832031,-0.55469 l -24.931641,37.31445 c -2.784357,-1.89973 -5.386826,-4.04389 -7.783203,-6.39844 L 88.152344,104.5547 a 11.623067,11.623067 0 0 1 -0.708985,-0.70508 l -31.726562,31.72656 c -2.354579,-2.39638 -4.498679,-4.99883 -6.398438,-7.7832 l 37.314453,-24.93359 a 11.623067,11.623067 0 0 1 -0.55664,-0.83008 l -37.308594,24.92773 c -1.837385,-2.79804 -3.44175,-5.76237 -4.765625,-8.87695 L 85.474609,100.90234 A 11.623067,11.623067 0 0 1 85.087891,99.978516 L 43.630859,117.15234 c -1.248843,-3.08951 -2.243695,-6.30969 -2.933593,-9.64257 L 84.720703,98.751953 A 11.623067,11.623067 0 0 1 84.521484,97.773438 L 40.515625,106.52734 C 39.902154,103.27381 39.565001,99.925055 39.535156,96.5 l 44.859375,0 a 11.623067,11.623067 0 0 1 -0.01758,-0.5 11.623067,11.623067 0 0 1 0.02539,-0.5 l -44.867188,0 c 0.02982,-3.424508 0.367204,-6.774337 0.980469,-10.027344 l 44.011719,8.753906 a 11.623067,11.623067 0 0 1 0.195312,-0.980468 l -44.02539,-8.75586 c 0.689827,-3.333067 1.682796,-6.552931 2.93164,-9.642578 L 85.09375,92.023438 a 11.623067,11.623067 0 0 1 0.380859,-0.923829 L 44.001953,73.919922 c 1.324033,-3.11487 2.927963,-6.080677 4.765625,-8.878906 l 37.310547,24.93164 a 11.623067,11.623067 0 0 1 0.554687,-0.833984 L 49.318359,64.207031 c 1.899781,-2.784319 4.043824,-5.386891 6.398438,-7.783203 l 31.728515,31.728516 a 11.623067,11.623067 0 0 1 0.705079,-0.708985 L 56.423828,55.716797 c 2.396426,-2.354501 4.998777,-4.498764 7.783203,-6.398438 l 24.931641,37.316407 a 11.623067,11.623067 0 0 1 0.832031,-0.558594 L 65.041016,48.767578 c 2.798334,-1.837557 5.763951,-3.441677 8.878906,-4.765625 l 17.179687,41.472656 a 11.623067,11.623067 0 0 1 0.919922,-0.384765 L 74.847656,43.630859 c 3.089864,-1.248849 6.3093,-2.241829 9.642578,-2.93164 l 8.75586,44.021484 a 11.623067,11.623067 0 0 1 0.980468,-0.199219 L 85.472656,40.517578 C 88.725795,39.904305 92.075389,39.564993 95.5,39.535156 Z"
         transform="translate(0,860.36216)"
         id="rect4146"
         inkscape:connector-curvature="0" />
    </g>
    <ellipse
       style="fill:none;fill-opacity:1;stroke:#b3b3b3;stroke-width:1.80823457;stroke-miterlimit:4;stroke-dasharray:none;stroke-opacity:1"
       id="path4243"
       cx="96"
       cy="956.36218"
       rx="71.425323"
       ry="71.432251" />
    <g
       id="g4170"
       transform="matrix(0.90407344,0,0,0.90416101,9.2089515,91.656785)">
      <path
         id="path4136"
         transform="translate(0,860.36216)"
         d="m 96,2.4726562 c -2.263299,0 -5.814006,11.3972988 -8.066406,11.6191408 C 85.681194,14.313639 79.973716,3.8279836 77.753906,4.2695312 75.534096,4.7110789 74.273264,16.58128 72.107422,17.238281 69.94158,17.895282 62.3,8.72567 60.208984,9.5917969 58.117969,10.457924 59.197223,22.347151 57.201172,23.414062 c -1.996051,1.066912 -11.280245,-6.437108 -13.16211,-5.179687 -1.881864,1.257421 1.497601,12.706757 -0.251953,14.142578 -1.749553,1.435822 -12.321481,-4.112112 -13.921875,-2.511719 -1.600393,1.600394 3.947541,12.172322 2.511719,13.921875 -1.435821,1.749554 -12.885157,-1.629911 -14.142578,0.251953 -1.257421,1.881865 6.246599,11.166059 5.179687,13.16211 C 22.347151,59.197223 10.457924,58.117969 9.5917969,60.208984 8.72567,62.3 17.895282,69.94158 17.238281,72.107422 16.58128,74.273264 4.7110789,75.534096 4.2695312,77.753906 3.8279836,79.973716 14.313639,85.681194 14.091797,87.933594 13.869955,90.185994 2.4726563,93.736701 2.4726562,96 c 0,2.263299 11.3972988,5.81401 11.6191408,8.06641 0.221842,2.2524 -10.2638134,7.95987 -9.8222658,10.17968 0.4415477,2.21981 12.3117488,3.48065 12.9687498,5.64649 0.657001,2.16584 -8.512611,9.80742 -7.6464841,11.89844 0.8661271,2.09101 12.7553541,1.01176 13.8222651,3.00781 1.066912,1.99605 -6.437108,11.28024 -5.179687,13.16211 1.257421,1.88186 12.706757,-1.4976 14.142578,0.25195 1.435822,1.74955 -4.112112,12.32148 -2.511719,13.92188 1.600394,1.60039 12.172322,-3.94754 13.921875,-2.51172 1.749554,1.43582 -1.629911,12.88515 0.251953,14.14257 1.881865,1.25743 11.166059,-6.24659 13.16211,-5.17968 1.996051,1.06691 0.916797,12.95614 3.007812,13.82226 2.091016,0.86613 9.732596,-8.30348 11.898438,-7.64648 2.165842,0.657 3.426674,12.5272 5.646484,12.96875 2.21981,0.44155 7.927288,-10.04411 10.179688,-9.82227 2.2524,0.22185 5.803107,11.61914 8.066406,11.61914 2.263299,0 5.81401,-11.39729 8.06641,-11.61914 2.2524,-0.22184 7.95987,10.26382 10.17968,9.82227 2.21981,-0.44155 3.48065,-12.31175 5.64649,-12.96875 2.16584,-0.657 9.80742,8.51261 11.89844,7.64648 2.09101,-0.86612 1.01176,-12.75535 3.00781,-13.82226 1.99605,-1.06691 11.28024,6.43711 13.16211,5.17968 1.88186,-1.25742 -1.4976,-12.70675 0.25195,-14.14257 1.74955,-1.43582 12.32148,4.11211 13.92188,2.51172 1.60039,-1.6004 -3.94754,-12.17233 -2.51172,-13.92188 1.43582,-1.74955 12.88515,1.62991 14.14257,-0.25195 1.25743,-1.88187 -6.24659,-11.16606 -5.17968,-13.16211 1.06691,-1.99605 12.95614,-0.9168 13.82226,-3.00781 0.86613,-2.09102 -8.30348,-9.7326 -7.64648,-11.89844 0.657,-2.16584 12.5272,-3.42668 12.96875,-5.64649 0.44155,-2.21981 -10.04411,-7.92728 -9.82227,-10.17968 0.22185,-2.2524 11.61914,-5.803111 11.61914,-8.06641 0,-2.263299 -11.39729,-5.814006 -11.61914,-8.066406 -0.22184,-2.2524 10.26382,-7.959878 9.82227,-10.179688 -0.44155,-2.21981 -12.31175,-3.480642 -12.96875,-5.646484 -0.657,-2.165842 8.51261,-9.807422 7.64648,-11.898438 -0.86612,-2.091015 -12.75535,-1.011761 -13.82226,-3.007812 -1.06691,-1.996051 6.43711,-11.280245 5.17968,-13.16211 -1.25742,-1.881864 -12.70675,1.497601 -14.14257,-0.251953 -1.43582,-1.749553 4.11211,-12.321481 2.51172,-13.921875 -1.6004,-1.600393 -12.17233,3.947541 -13.92188,2.511719 -1.74955,-1.435821 1.62991,-12.885157 -0.25195,-14.142578 -1.88187,-1.257421 -11.16606,6.246599 -13.16211,5.179687 -1.99605,-1.066911 -0.9168,-12.956138 -3.00781,-13.8222651 C 129.7,8.72567 122.05842,17.895282 119.89258,17.238281 117.72674,16.58128 116.4659,4.7110789 114.24609,4.2695312 112.02628,3.8279836 106.31881,14.313639 104.06641,14.091797 101.81401,13.869955 98.263299,2.4726563 96,2.4726562 Z M 96,16 A 80,80 0 0 1 176,96 80,80 0 0 1 96,176 80,80 0 0 1 16,96 80,80 0 0 1 96,16 Z"
         style="fill:#000000;fill-opacity:1"
         inkscape:connector-curvature="0" />
      <path
         id="path4148"
         transform="translate(0,860.36216)"
         d="M 96,27.083984 A 68.915291,68.915291 0 0 0 27.083984,96 68.915291,68.915291 0 0 0 96,164.91602 68.915291,68.915291 0 0 0 164.91602,96 68.915291,68.915291 0 0 0 96,27.083984 Z m 0,2.625 A 66.291267,66.291267 0 0 1 162.29102,96 66.291267,66.291267 0 0 1 96,162.29102 66.291267,66.291267 0 0 1 29.708984,96 66.291267,66.291267 0 0 1 96,29.708984 Z"
         style="fill:#000000;fill-opacity:1"
         inkscape:connector-curvature="0" />
      <path
         id="path4154"
         transform="translate(0,860.36216)"
         d="m 96,10.271484 c -13.107471,0 -2.209238,11.047102 0,18.679688 2.209238,-7.632586 13.10747,-18.679688 0,-18.679688 z m 0,18.679688 c -0.07553,0.260953 -0.125699,0.511197 -0.179688,0.763672 A 66.291267,66.291267 0 0 1 96,29.708984 a 66.291267,66.291267 0 0 1 0.179688,0.0098 C 96.125549,29.465096 96.075899,29.21339 96,28.951172 Z M 67.234375,15.759766 c -1.050357,0.02333 -2.375632,0.347285 -4.041016,1.037109 -12.10993,5.016097 2.186737,11.053503 7.148438,17.259766 -0.759286,-6.810867 3.480122,-18.443191 -3.107422,-18.296875 z m 3.107422,18.296875 c 0.03218,0.288673 0.0854,0.55798 0.136719,0.828125 a 66.291267,66.291267 0 0 1 0.345703,-0.154297 C 70.670916,34.505916 70.521022,34.280821 70.341797,34.056641 Z M 124.76562,15.759766 c -6.58754,-0.146316 -2.34813,11.486008 -3.10742,18.296875 4.9617,-6.206263 19.25837,-12.243669 7.14844,-17.259766 -1.66538,-0.689824 -2.99065,-1.01378 -4.04102,-1.037109 z m -3.10742,18.296875 c -0.17465,0.218468 -0.32062,0.437426 -0.4707,0.65625 a 66.291267,66.291267 0 0 1 0.3418,0.125 c 0.0473,-0.255904 0.0985,-0.508921 0.1289,-0.78125 z M 40.464844,32.513672 c -1.316637,-0.07915 -2.959603,0.742806 -5.083985,2.867187 -9.268301,9.268302 6.249676,9.374197 13.208985,13.208985 -2.955819,-5.36417 -3.697385,-15.810013 -8.125,-16.076172 z m 8.125,16.076172 c 0.138175,0.250759 0.28717,0.476042 0.435547,0.703125 a 66.291267,66.291267 0 0 1 0.255859,-0.275391 c -0.22364,-0.14567 -0.444915,-0.29191 -0.691406,-0.427734 z M 151.53516,32.513672 c -4.42762,0.266159 -5.16919,10.712002 -8.125,16.076172 6.95931,-3.834788 22.47728,-3.940683 13.20898,-13.208985 -2.12438,-2.124381 -3.76735,-2.946335 -5.08398,-2.867187 z m -8.125,16.076172 c -0.25076,0.138175 -0.47605,0.28717 -0.70313,0.435547 a 66.291267,66.291267 0 0 1 0.27539,0.255859 c 0.14567,-0.22364 0.29191,-0.444915 0.42774,-0.691406 z M 21.150391,58.451172 c -1.516369,0.07811 -2.973867,1.411421 -4.353516,4.742187 -5.016207,12.110195 9.362934,6.268087 17.259766,7.148438 -4.499266,-3.597014 -8.909437,-12.096511 -12.90625,-11.890625 z m 12.90625,11.890625 c 0.218468,0.174658 0.437426,0.320621 0.65625,0.470703 a 66.291267,66.291267 0 0 1 0.125,-0.341797 c -0.255904,-0.04733 -0.508921,-0.09855 -0.78125,-0.128906 z M 170.84961,58.451172 c -3.99681,-0.205886 -8.40698,8.293611 -12.90625,11.890625 7.89683,-0.880351 22.27598,4.961757 17.25976,-7.148438 -1.37964,-3.330766 -2.83714,-4.664075 -4.35351,-4.742187 z m -12.90625,11.890625 c -0.28867,0.03218 -0.55798,0.0854 -0.82813,0.136719 a 66.291267,66.291267 0 0 1 0.1543,0.345703 c 0.22455,-0.153303 0.44965,-0.303197 0.67383,-0.482422 z M 14.015625,89.654297 C 11.756636,89.615257 10.271484,91.193073 10.271484,96 c 0,13.10747 11.047102,2.209238 18.679688,0 C 24.117698,94.60096 17.91642,89.721711 14.015625,89.654297 Z M 28.951172,96 c 0.260953,0.07553 0.511197,0.125699 0.763672,0.179688 A 66.291267,66.291267 0 0 1 29.708984,96 66.291267,66.291267 0 0 1 29.71875,95.820312 C 29.465096,95.874451 29.21339,95.924101 28.951172,96 Z M 177.98438,89.654297 C 174.08358,89.721711 167.8823,94.60096 163.04883,96 c 7.63258,2.209238 18.67969,13.10747 18.67969,0 0,-4.806927 -1.48517,-6.384743 -3.74414,-6.345703 z M 163.04883,96 c -0.26096,-0.07553 -0.5112,-0.125699 -0.76367,-0.179688 a 66.291267,66.291267 0 0 1 0.006,0.179688 66.291267,66.291267 0 0 1 -0.01,0.179688 C 162.5349,96.125549 162.78661,96.075899 163.04883,96 Z M 22.136719,121.01953 c -4.846335,-0.15688 -8.16146,0.97513 -5.339844,7.78711 5.016097,12.10993 11.053503,-2.18674 17.259766,-7.14844 -3.454864,0.38516 -8.15055,-0.51665 -11.919922,-0.63867 z m 11.919922,0.63867 c 0.288673,-0.0322 0.55798,-0.0854 0.828125,-0.13672 a 66.291267,66.291267 0 0 1 -0.154297,-0.3457 c -0.224553,0.1533 -0.449648,0.3032 -0.673828,0.48242 z m 135.806639,-0.63867 c -3.76937,0.12202 -8.46506,1.02383 -11.91992,0.63867 6.20626,4.9617 12.24368,19.25837 17.25976,7.14844 2.82162,-6.81198 -0.4935,-7.94399 -5.33984,-7.78711 z m -11.91992,0.63867 c -0.21847,-0.17465 -0.43743,-0.32062 -0.65625,-0.4707 a 66.291267,66.291267 0 0 1 -0.125,0.3418 c 0.2559,0.0473 0.50892,0.0985 0.78125,0.1289 z m -14.96875,21.04883 a 66.291267,66.291267 0 0 1 -0.25586,0.27539 c 0.22364,0.14567 0.44491,0.29191 0.69141,0.42774 -0.13818,-0.25076 -0.28717,-0.47605 -0.43555,-0.70313 z m 0.43555,0.70313 c 3.83478,6.95931 3.94068,22.47728 13.20898,13.20898 9.2683,-9.2683 -6.24967,-9.3742 -13.20898,-13.20898 z m -94.392582,-0.69141 c -0.14567,0.22364 -0.29191,0.44491 -0.427734,0.69141 0.250759,-0.13818 0.476042,-0.28717 0.703125,-0.43555 a 66.291267,66.291267 0 0 1 -0.275391,-0.25586 z m -0.427734,0.69141 c -6.959309,3.83478 -22.477286,3.94068 -13.208985,13.20898 9.268302,9.2683 9.374197,-6.24967 13.208985,-13.20898 z m 72.931636,13.70507 a 66.291267,66.291267 0 0 1 -0.3457,0.1543 c 0.1533,0.22455 0.3032,0.44965 0.48242,0.67383 -0.0322,-0.28867 -0.0854,-0.55798 -0.13672,-0.82813 z m 0.13672,0.82813 c 0.88035,7.89683 -4.96175,22.27598 7.14844,17.25976 12.10993,-5.01609 -2.18674,-11.0535 -7.14844,-17.25976 z m -51.187497,-0.78125 c -0.04733,0.2559 -0.09855,0.50892 -0.128906,0.78125 0.174658,-0.21847 0.320621,-0.43743 0.470703,-0.65625 a 66.291267,66.291267 0 0 1 -0.341797,-0.125 z m -0.128906,0.78125 c -4.961701,6.20626 -19.258368,12.24368 -7.148438,17.25976 12.110195,5.01622 6.268087,-9.36293 7.148438,-17.25976 z m 25.478515,4.33789 c 0.05414,0.25365 0.103789,0.50536 0.179688,0.76758 0.07553,-0.26096 0.125699,-0.5112 0.179688,-0.76367 A 66.291267,66.291267 0 0 1 96,162.29102 a 66.291267,66.291267 0 0 1 -0.179688,-0.01 z M 96,163.04883 c -2.209238,7.63258 -13.107471,18.67969 0,18.67969 13.10747,0 2.209238,-11.04711 0,-18.67969 z"
         style="fill:#000000;fill-opacity:1"
         inkscape:connector-curvature="0" />
      <path
         id="path4146"
         transform="translate(0,860.36216)"
         d="m 96,2.4765625 c -2.694393,10e-8 -8.635798,16.2010405 -13.683594,28.7402345 A 66.291267,66.291267 0 0 1 96,29.708984 66.291267,66.291267 0 0 1 109.6582,31.154297 C 104.6158,18.623794 98.689944,2.4765624 96,2.4765625 Z M 30.835938,29.5625 c -0.448114,0.01858 -0.776407,0.11625 -0.966797,0.306641 -1.904028,1.904027 5.340376,17.542501 10.636718,29.974609 A 66.291267,66.291267 0 0 1 59.806641,40.488281 C 48.624223,35.723312 34.864853,29.395489 30.835938,29.5625 Z m 130.328122,0 c -4.03331,-0.167194 -17.81883,6.176617 -29.00781,10.943359 a 66.291267,66.291267 0 0 1 19.35547,19.300782 c 5.29495,-12.426176 12.5213,-28.035342 10.61914,-29.9375 -0.19039,-0.190391 -0.51868,-0.288065 -0.9668,-0.306641 z M 160.7832,82.316406 A 66.291267,66.291267 0 0 1 162.29102,96 66.291267,66.291267 0 0 1 160.8457,109.6582 C 173.37621,104.6158 189.52344,98.689944 189.52344,96 c 0,-2.694393 -16.20104,-8.635798 -28.74024,-13.683594 z M 31.154297,82.341797 C 18.623794,87.384196 2.4765624,93.310056 2.4765625,96 c 10e-8,2.694393 16.2010405,8.6358 28.7402345,13.68359 A 66.291267,66.291267 0 0 1 29.708984,96 66.291267,66.291267 0 0 1 31.154297,82.341797 Z M 151.49414,132.15625 a 66.291267,66.291267 0 0 1 -19.30078,19.35547 c 12.42617,5.29495 28.03534,12.5213 29.9375,10.61914 1.90403,-1.90403 -5.34038,-17.5425 -10.63672,-29.97461 z m -111.005859,0.0371 c -5.294949,12.42617 -12.521299,28.03534 -10.61914,29.9375 1.904027,1.90403 17.542501,-5.34038 29.974609,-10.63672 A 66.291267,66.291267 0 0 1 40.488281,132.19336 Z M 109.68359,160.7832 A 66.291267,66.291267 0 0 1 96,162.29102 66.291267,66.291267 0 0 1 82.341797,160.8457 C 87.384196,173.37621 93.310056,189.52344 96,189.52344 c 2.694393,0 8.6358,-16.20104 13.68359,-28.74024 z"
         style="fill:#000000;fill-opacity:1"
         inkscape:connector-curvature="0" />
    </g>
    <ellipse
       style="fill:none;fill-opacity:1;stroke:url(#linearGradient4219);stroke-width:2.71235156;stroke-miterlimit:4;stroke-dasharray:none;stroke-opacity:1"
       id="path4211"
       cx="96"
       cy="956.36218"
       rx="86.64402"
       ry="86.652397" />
    <g
       id="g4351"
       transform="matrix(0.90407343,0,0,0.904161,9.2089507,91.656793)">
      <g
         transform="translate(3.5e-6,-2.5e-5)"
         id="g4324">
        <path
           inkscape:connector-curvature="0"
           id="path4247"
           d="m 95.978516,879.86997 0,0.24414 -11.94336,71.02735 c -0.700989,1.60029 -1.095703,3.36482 -1.095703,5.2207 0,1.85588 0.394714,3.61846 1.095703,5.21875 l 11.94336,71.02939 0,0.2441 0.02148,-0.1211 0.01953,0.1211 0,-0.2441 11.945304,-71.02939 c 0.70099,-1.60029 1.09571,-3.36287 1.09571,-5.21875 0,-1.85588 -0.39472,-3.62041 -1.09571,-5.2207 l -11.945304,-71.02735 0,-0.24414 -0.01953,0.1211 -0.02148,-0.1211 z M 96,945.30161 c 6.12042,0 11.06055,4.94013 11.06055,11.06055 0,6.12041 -4.94013,11.06055 -11.06055,11.06055 -6.120416,0 -11.060547,-4.94014 -11.060547,-11.06055 0,-6.12042 4.940131,-11.06055 11.060547,-11.06055 z"
           style="color:#000000;font-style:normal;font-variant:normal;font-weight:normal;font-stretch:normal;font-size:medium;line-height:normal;font-family:sans-serif;text-indent:0;text-align:start;text-decoration:none;text-decoration-line:none;text-decoration-style:solid;text-decoration-color:#000000;letter-spacing:normal;word-spacing:normal;text-transform:none;direction:ltr;block-progression:tb;writing-mode:lr-tb;baseline-shift:baseline;text-anchor:start;white-space:normal;clip-rule:nonzero;display:inline;overflow:visible;visibility:visible;opacity:1;isolation:auto;mix-blend-mode:normal;color-interpolation:sRGB;color-interpolation-filters:linearRGB;solid-color:#000000;solid-opacity:1;fill:url(#linearGradient4338);fill-opacity:1;fill-rule:nonzero;stroke:none;stroke-width:2;stroke-linecap:butt;stroke-linejoin:miter;stroke-miterlimit:4;stroke-dasharray:none;stroke-dashoffset:0;stroke-opacity:1;color-rendering:auto;image-rendering:auto;shape-rendering:auto;text-rendering:auto;enable-background:accumulate" />
      </g>
      <circle
         r="2.5"
         cy="956.36218"
         cx="96"
         id="path4349"
         style="fill:#000000;fill-opacity:1;stroke:none;stroke-width:1;stroke-linecap:square;stroke-miterlimit:100;stroke-dasharray:none;stroke-opacity:1" />
    </g>
  </g>
</svg>
