<?xml version="1.0" encoding="UTF-8" standalone="no"?>
<svg
   xmlns:dc="http://purl.org/dc/elements/1.1/"
   xmlns:cc="http://creativecommons.org/ns#"
   xmlns:rdf="http://www.w3.org/1999/02/22-rdf-syntax-ns#"
   xmlns:svg="http://www.w3.org/2000/svg"
   xmlns="http://www.w3.org/2000/svg"
   xmlns:sodipodi="http://sodipodi.sourceforge.net/DTD/sodipodi-0.dtd"
   xmlns:inkscape="http://www.inkscape.org/namespaces/inkscape"
   fill-opacity="1"
   color-rendering="auto"
   color-interpolation="auto"
   text-rendering="auto"
   stroke="black"
   stroke-linecap="square"
   width="670"
   stroke-miterlimit="10"
   shape-rendering="auto"
   stroke-opacity="1"
   fill="black"
   stroke-dasharray="none"
   font-weight="normal"
   stroke-width="1"
   viewBox="290 -10 670 880"
   height="880"
   font-family="'Dialog'"
   font-style="normal"
   stroke-linejoin="miter"
   font-size="12"
   stroke-dashoffset="0"
   image-rendering="auto"
   id="svg2"
   version="1.1"
   inkscape:version="0.91 r13725"
   sodipodi:docname="uml.svg">
  <metadata
     id="metadata389">
    <rdf:RDF>
      <cc:Work
         rdf:about="">
        <dc:format>image/svg+xml</dc:format>
        <dc:type
           rdf:resource="http://purl.org/dc/dcmitype/StillImage" />
        <dc:title></dc:title>
      </cc:Work>
    </rdf:RDF>
  </metadata>
  <sodipodi:namedview
     pagecolor="#ffffff"
     bordercolor="#666666"
     borderopacity="1"
     objecttolerance="10"
     gridtolerance="10"
     guidetolerance="10"
     inkscape:pageopacity="0"
     inkscape:pageshadow="2"
     inkscape:window-width="1920"
     inkscape:window-height="1017"
     id="namedview387"
     showgrid="false"
     inkscape:zoom="1.5170655"
     inkscape:cx="254.08113"
     inkscape:cy="654.55665"
     inkscape:window-x="1672"
     inkscape:window-y="84"
     inkscape:window-maximized="1"
     inkscape:current-layer="svg2" />
  <!--Generated by the Batik Graphics2D SVG Generator-->
  <defs
     id="genericDefs">
    <defs
       id="defs1">
      <clipPath
         id="clipPath1"
         clipPathUnits="userSpaceOnUse">
        <path
           id="path9"
           d="M0 0 L2147483647 0 L2147483647 2147483647 L0 2147483647 L0 0 Z" />
      </clipPath>
      <clipPath
         id="clipPath2"
         clipPathUnits="userSpaceOnUse">
        <path
           id="path12"
           d="M0 0 L0 40 L310 40 L310 0 Z" />
      </clipPath>
      <clipPath
         id="clipPath3"
         clipPathUnits="userSpaceOnUse">
        <path
           id="path15"
           d="M0 0 L0 40 L180 40 L180 0 Z" />
      </clipPath>
      <clipPath
         id="clipPath4"
         clipPathUnits="userSpaceOnUse">
        <path
           id="path18"
           d="M0 0 L0 40 L40 40 L40 0 Z" />
      </clipPath>
      <clipPath
         id="clipPath5"
         clipPathUnits="userSpaceOnUse">
        <path
           id="path21"
           d="M0 0 L0 40 L260 40 L260 0 Z" />
      </clipPath>
      <clipPath
         id="clipPath6"
         clipPathUnits="userSpaceOnUse">
        <path
           id="path24"
           d="M0 0 L0 20 L20 20 L20 0 Z" />
      </clipPath>
      <clipPath
         id="clipPath7"
         clipPathUnits="userSpaceOnUse">
        <path
           id="path27"
           d="M0 0 L0 40 L270 40 L270 0 Z" />
      </clipPath>
      <clipPath
         id="clipPath8"
         clipPathUnits="userSpaceOnUse">
        <path
           id="path30"
           d="M0 0 L0 40 L200 40 L200 0 Z" />
      </clipPath>
      <clipPath
         id="clipPath9"
         clipPathUnits="userSpaceOnUse">
        <path
           id="path33"
           d="M0 0 L0 40 L230 40 L230 0 Z" />
      </clipPath>
      <clipPath
         id="clipPath10"
         clipPathUnits="userSpaceOnUse">
        <path
           id="path36"
           d="M0 0 L0 40 L280 40 L280 0 Z" />
      </clipPath>
      <clipPath
         id="clipPath11"
         clipPathUnits="userSpaceOnUse">
        <path
           id="path39"
           d="M0 0 L0 40 L190 40 L190 0 Z" />
      </clipPath>
      <clipPath
         id="clipPath12"
         clipPathUnits="userSpaceOnUse">
        <path
           id="path42"
           d="M0 0 L0 40 L80 40 L80 0 Z" />
      </clipPath>
      <clipPath
         id="clipPath13"
         clipPathUnits="userSpaceOnUse">
        <path
           id="path45"
           d="M0 0 L0 40 L160 40 L160 0 Z" />
      </clipPath>
      <clipPath
         id="clipPath14"
         clipPathUnits="userSpaceOnUse">
        <path
           id="path48"
           d="M0 0 L0 40 L220 40 L220 0 Z" />
      </clipPath>
      <clipPath
         id="clipPath15"
         clipPathUnits="userSpaceOnUse">
        <path
           id="path51"
           d="M0 0 L0 60 L50 60 L50 0 Z" />
      </clipPath>
      <clipPath
         id="clipPath16"
         clipPathUnits="userSpaceOnUse">
        <path
           id="path54"
           d="M0 0 L0 620 L340 620 L340 0 Z" />
      </clipPath>
      <clipPath
         id="clipPath17"
         clipPathUnits="userSpaceOnUse">
        <path
           id="path57"
           d="M0 0 L0 70 L50 70 L50 0 Z" />
      </clipPath>
      <clipPath
         id="clipPath18"
         clipPathUnits="userSpaceOnUse">
        <path
           id="path60"
           d="M0 0 L0 70 L110 70 L110 0 Z" />
      </clipPath>
      <clipPath
         id="clipPath19"
         clipPathUnits="userSpaceOnUse">
        <path
           id="path63"
           d="M0 0 L0 120 L230 120 L230 0 Z" />
      </clipPath>
      <clipPath
         id="clipPath20"
         clipPathUnits="userSpaceOnUse">
        <path
           id="path66"
           d="M0 0 L0 60 L30 60 L30 0 Z" />
      </clipPath>
      <clipPath
         id="clipPath21"
         clipPathUnits="userSpaceOnUse">
        <path
           id="path69"
           d="M0 0 L0 40 L170 40 L170 0 Z" />
      </clipPath>
      <clipPath
         id="clipPath22"
         clipPathUnits="userSpaceOnUse">
        <path
           id="path72"
           d="M0 0 L0 90 L230 90 L230 0 Z" />
      </clipPath>
      <clipPath
         id="clipPath23"
         clipPathUnits="userSpaceOnUse">
        <path
           id="path75"
           d="M0 0 L0 200 L130 200 L130 0 Z" />
      </clipPath>
      <clipPath
         id="clipPath24"
         clipPathUnits="userSpaceOnUse">
        <path
           id="path78"
           d="M0 0 L0 90 L50 90 L50 0 Z" />
      </clipPath>
      <clipPath
         id="clipPath25"
         clipPathUnits="userSpaceOnUse">
        <path
           id="path81"
           d="M0 0 L0 60 L80 60 L80 0 Z" />
      </clipPath>
      <clipPath
         id="clipPath26"
         clipPathUnits="userSpaceOnUse">
        <path
           id="path84"
           d="M0 0 L0 300 L260 300 L260 0 Z" />
      </clipPath>
      <clipPath
         id="clipPath27"
         clipPathUnits="userSpaceOnUse">
        <path
           id="path87"
           d="M0 0 L0 80 L170 80 L170 0 Z" />
      </clipPath>
    </defs>
  </defs>
  <rect
     x="0.5"
     y="0.5"
     clip-path="url(#clipPath2)"
     width="308.5"
     rx="8"
     ry="8"
     height="38.5"
     id="rect91"
     style="fill:#ffffff;fill-opacity:0;stroke:none;stroke-opacity:0"
     transform="translate(480,770)" />
  <rect
     x="0.5"
     y="0.5"
     clip-path="url(#clipPath2)"
     width="308.5"
     rx="8"
     ry="8"
     height="38.5"
     id="rect95"
     style="fill:none"
     transform="translate(480,770)" />
  <text
     x="107"
     font-size="14"
     y="17"
     clip-path="url(#clipPath2)"
     xml:space="preserve"
     id="text97"
     style="font-size:14px;font-family:sans-serif;stroke:none"
     transform="translate(468.37493,769.9996)">nalaď frekvenci</text>
  <text
     x="27"
     font-size="14"
     y="32.9688"
     clip-path="url(#clipPath2)"
     xml:space="preserve"
     id="text99"
     style="font-size:13.5px;font-family:sans-serif;stroke:none"
     transform="translate(469.69326,769.9996)">přidej do zásobníku nenaladěné sousedy</text>
  <rect
     x="0.5"
     y="0.5"
     clip-path="url(#clipPath3)"
     width="178.5"
     rx="8"
     ry="8"
     height="38.5"
     id="rect103"
     style="fill:#ffffff;fill-opacity:0;stroke:none;stroke-opacity:0"
     transform="translate(760,600)" />
  <rect
     x="0.5"
     y="0.5"
     clip-path="url(#clipPath3)"
     width="178.5"
     rx="8"
     ry="8"
     height="38.5"
     id="rect107"
     style="fill:none"
     transform="translate(760,600)" />
  <text
     x="25"
     font-size="14"
     y="24.9844"
     clip-path="url(#clipPath3)"
     xml:space="preserve"
     id="text109"
     style="font-size:14px;font-family:sans-serif;stroke:none"
     transform="translate(753.04535,599.9996)">vezmi další frekvenci</text>
  <path
     d="M 20.5,1.5 39,20.5 20.5,39 1.5,20.5 l 19,-19"
     clip-path="url(#clipPath4)"
     id="path113"
     inkscape:connector-curvature="0"
     style="fill:#ffffff;fill-opacity:0;stroke:none;stroke-opacity:0"
     transform="translate(610,700)" />
  <path
     d="M 20.5,1.5 39,20.5 20.5,39 1.5,20.5 l 19,-19"
     clip-path="url(#clipPath4)"
     id="path117"
     inkscape:connector-curvature="0"
     style="fill:none"
     transform="translate(610,700)" />
  <rect
     x="0.5"
     y="0.5"
     clip-path="url(#clipPath5)"
     width="258.5"
     rx="8"
     ry="8"
     height="38.5"
     id="rect121"
     style="fill:#ffffff;fill-opacity:0;stroke:none;stroke-opacity:0"
     transform="translate(500,660)" />
  <rect
     x="0.5"
     y="0.5"
     clip-path="url(#clipPath5)"
     width="258.5"
     rx="8"
     ry="8"
     height="38.5"
     id="rect125"
     style="fill:none"
     transform="translate(500,660)" />
  <text
     x="23"
     font-size="14"
     y="24.9844"
     clip-path="url(#clipPath5)"
     xml:space="preserve"
     id="text127"
     style="font-size:13.76172924px;font-family:sans-serif;stroke:none"
     transform="matrix(0.98022776,0,0,1,491.39738,659.9996)"
     mask="none">má frekvenci některý ze sousedů? </text>
  <circle
     r="8.75"
     clip-path="url(#clipPath6)"
     cx="10.25"
     cy="10.25"
     id="circle131"
     style="stroke:none"
     transform="translate(370,50)" />
  <circle
     r="8.75"
     clip-path="url(#clipPath6)"
     cx="10.25"
     cy="10.25"
     id="circle133"
     style="fill:none"
     transform="translate(370,50)" />
  <path
     d="M 20.5,1.5 39,20.5 20.5,39 1.5,20.5 l 19,-19"
     clip-path="url(#clipPath4)"
     id="path137"
     inkscape:connector-curvature="0"
     style="fill:#ffffff;fill-opacity:0;stroke:none;stroke-opacity:0"
     transform="translate(610,580)" />
  <path
     d="M 20.5,1.5 39,20.5 20.5,39 1.5,20.5 l 19,-19"
     clip-path="url(#clipPath4)"
     id="path141"
     inkscape:connector-curvature="0"
     style="fill:none"
     transform="translate(610,580)" />
  <rect
     x="0.5"
     y="0.5"
     clip-path="url(#clipPath7)"
     width="268.5"
     rx="8"
     ry="8"
     height="38.5"
     id="rect145"
     style="fill:#ffffff;fill-opacity:0;stroke:none;stroke-opacity:0"
     transform="translate(500,540)" />
  <rect
     x="0.5"
     y="0.5"
     clip-path="url(#clipPath7)"
     width="268.5"
     rx="8"
     ry="8"
     height="38.5"
     id="rect149"
     style="fill:none"
     transform="translate(500,540)" />
  <text
     x="34"
     font-size="14"
     y="24.9844"
     clip-path="url(#clipPath7)"
     xml:space="preserve"
     id="text151"
     style="font-size:14px;font-family:sans-serif;stroke:none"
     transform="translate(487.21221,539.9996)">přesahuje frekvence maximální?</text>
  <rect
     x="0.5"
     y="0.5"
     clip-path="url(#clipPath8)"
     width="198.5"
     rx="8"
     ry="8"
     height="38.5"
     id="rect155"
     style="fill:#ffffff;fill-opacity:0;stroke:none;stroke-opacity:0"
     transform="translate(530,470)" />
  <rect
     x="0.5"
     y="0.5"
     clip-path="url(#clipPath8)"
     width="198.5"
     rx="8"
     ry="8"
     height="38.5"
     id="rect159"
     style="fill:none"
     transform="translate(530,470)" />
  <text
     x="34"
     font-size="14"
     y="17"
     clip-path="url(#clipPath8)"
     xml:space="preserve"
     id="text161"
     style="font-size:14px;font-family:sans-serif;stroke:none"
     transform="translate(523.27154,469.9996)">vezmi první frekvenci</text>
  <text
     x="31"
     font-size="14"
     y="32.9688"
     clip-path="url(#clipPath8)"
     xml:space="preserve"
     id="text163"
     style="font-size:14px;font-family:sans-serif;stroke:none"
     transform="translate(525.24904,469.9996)">ze seznamu frekvencí</text>
  <path
     d="M 20.5,1.5 39,20.5 20.5,39 1.5,20.5 l 19,-19"
     clip-path="url(#clipPath4)"
     id="path167"
     inkscape:connector-curvature="0"
     style="fill:#ffffff;fill-opacity:0;stroke:none;stroke-opacity:0"
     transform="translate(610,400)" />
  <path
     d="M 20.5,1.5 39,20.5 20.5,39 1.5,20.5 l 19,-19"
     clip-path="url(#clipPath4)"
     id="path171"
     inkscape:connector-curvature="0"
     style="fill:none"
     transform="translate(610,400)" />
  <rect
     x="0.5"
     y="0.5"
     clip-path="url(#clipPath9)"
     width="228.5"
     rx="8"
     ry="8"
     height="38.5"
     id="rect175"
     style="fill:#ffffff;fill-opacity:0;stroke:none;stroke-opacity:0"
     transform="translate(520,360)" />
  <rect
     x="0.5"
     y="0.5"
     clip-path="url(#clipPath9)"
     width="228.5"
     rx="8"
     ry="8"
     height="38.5"
     id="rect179"
     style="fill:none"
     transform="translate(520,360)" />
  <text
     x="32"
     font-size="14"
     y="17"
     clip-path="url(#clipPath9)"
     xml:space="preserve"
     id="text181"
     style="font-size:14px;font-family:sans-serif;stroke:none"
     transform="translate(517.00035,359.9996)">vyjmi vysílač ze zásobníku</text>
  <text
     x="75"
     font-size="14"
     y="32.9688"
     clip-path="url(#clipPath9)"
     xml:space="preserve"
     id="text183"
     style="font-size:14px;font-family:sans-serif;stroke:none"
     transform="translate(517.00035,359.9996)">je nalazený?</text>
  <path
     d="M 20.5,1.5 39,20.5 20.5,39 1.5,20.5 l 19,-19"
     clip-path="url(#clipPath4)"
     id="path187"
     inkscape:connector-curvature="0"
     style="fill:#ffffff;fill-opacity:0;stroke:none;stroke-opacity:0"
     transform="translate(610,260)" />
  <path
     d="M 20.5,1.5 39,20.5 20.5,39 1.5,20.5 l 19,-19"
     clip-path="url(#clipPath4)"
     id="path191"
     inkscape:connector-curvature="0"
     style="fill:none"
     transform="translate(610,260)" />
  <rect
     x="0.5"
     y="0.5"
     clip-path="url(#clipPath10)"
     width="278.5"
     rx="8"
     ry="8"
     height="38.5"
     id="rect195"
     style="fill:#ffffff;fill-opacity:0;stroke:none;stroke-opacity:0"
     transform="translate(490,220)" />
  <rect
     x="0.5"
     y="0.5"
     clip-path="url(#clipPath10)"
     width="278.5"
     rx="8"
     ry="8"
     height="38.5"
     id="rect199"
     style="fill:none"
     transform="translate(490,220)" />
  <text
     x="73"
     font-size="14"
     y="24.9844"
     clip-path="url(#clipPath10)"
     xml:space="preserve"
     id="text201"
     style="font-size:14px;font-family:sans-serif;stroke:none"
     transform="translate(487.00035,219.9996)">je zasobník prázdný?</text>
  <rect
     x="0.5"
     y="0.5"
     clip-path="url(#clipPath11)"
     width="188.5"
     rx="8"
     ry="8"
     height="38.5"
     id="rect205"
     style="fill:#ffffff;fill-opacity:0;stroke:none;stroke-opacity:0"
     transform="translate(540,150)" />
  <rect
     x="0.5"
     y="0.5"
     clip-path="url(#clipPath11)"
     width="188.5"
     rx="8"
     ry="8"
     height="38.5"
     id="rect209"
     style="fill:none"
     transform="translate(540,150)" />
  <text
     x="29"
     font-size="14"
     y="24.9844"
     clip-path="url(#clipPath11)"
     xml:space="preserve"
     id="text211"
     style="font-size:14px;font-family:sans-serif;stroke:none"
     transform="translate(534.66984,149.9996)">vlož ho do zásobníku</text>
  <rect
     x="0.5"
     y="0.5"
     clip-path="url(#clipPath12)"
     width="78.5"
     rx="8"
     ry="8"
     height="38.5"
     id="rect215"
     style="fill:#00ff00;fill-opacity:0.49020003;stroke:none;stroke-opacity:0.49020003"
     transform="translate(430,150)" />
  <rect
     x="0.5"
     y="0.5"
     clip-path="url(#clipPath12)"
     width="78.5"
     rx="8"
     ry="8"
     height="38.5"
     id="rect219"
     style="fill:none"
     transform="translate(430,150)" />
  <text
     x="18"
     font-size="14"
     y="24.9844"
     clip-path="url(#clipPath12)"
     xml:space="preserve"
     id="text221"
     style="font-size:14px;font-family:sans-serif;stroke:none"
     transform="translate(430,150)">hotovo</text>
  <rect
     x="0.5"
     y="0.5"
     clip-path="url(#clipPath13)"
     width="158.5"
     rx="8"
     ry="8"
     height="38.5"
     id="rect225"
     style="fill:#ff0000;fill-opacity:0.49020003;stroke:none;stroke-opacity:0.49020003"
     transform="translate(330,660)" />
  <rect
     x="0.5"
     y="0.5"
     clip-path="url(#clipPath13)"
     width="158.5"
     rx="8"
     ry="8"
     height="38.5"
     id="rect229"
     style="fill:none"
     transform="translate(330,660)" />
  <text
     x="61"
     font-size="14"
     y="17"
     clip-path="url(#clipPath13)"
     xml:space="preserve"
     id="text231"
     style="font-size:14px;font-family:sans-serif;stroke:none"
     transform="translate(327.00035,659.9996)">chyba</text>
  <text
     x="22"
     font-size="14"
     y="32.9688"
     clip-path="url(#clipPath13)"
     xml:space="preserve"
     id="text233"
     style="font-size:14px;font-family:sans-serif;stroke:none"
     transform="translate(327.00035,659.9996)">neřešitelné zadání</text>
  <path
     d="M 20.5,1.5 39,20.5 20.5,39 1.5,20.5 l 19,-19"
     clip-path="url(#clipPath4)"
     id="path237"
     inkscape:connector-curvature="0"
     style="fill:#ffffff;fill-opacity:0;stroke:none;stroke-opacity:0"
     transform="translate(610,80)" />
  <path
     d="M 20.5,1.5 39,20.5 20.5,39 1.5,20.5 l 19,-19"
     clip-path="url(#clipPath4)"
     id="path241"
     inkscape:connector-curvature="0"
     style="fill:none"
     transform="translate(610,80)" />
  <rect
     x="0.5"
     y="0.5"
     clip-path="url(#clipPath14)"
     width="218.5"
     rx="8"
     ry="8"
     height="38.5"
     id="rect245"
     style="fill:#ffffff;fill-opacity:0;stroke:none;stroke-opacity:0"
     transform="translate(520,40)" />
  <rect
     x="0.5"
     y="0.5"
     clip-path="url(#clipPath14)"
     width="218.5"
     rx="8"
     ry="8"
     height="38.5"
     id="rect249"
     style="fill:none"
     transform="translate(520,40)" />
  <text
     x="29"
     font-size="14"
     y="24.9844"
     clip-path="url(#clipPath14)"
     xml:space="preserve"
     id="text251"
     style="font-size:14px;font-family:sans-serif;stroke:none"
     transform="translate(513.27154,39.999599)">hledej nenaladěný vysílač</text>
  <path
     d="m 10.5,40.5 0,-30"
     clip-path="url(#clipPath15)"
     id="path255"
     inkscape:connector-curvature="0"
     style="fill:none"
     transform="translate(620,730)" />
  <path
     d="M 17,29.2417 10.5,40.5 4,29.2417"
     clip-path="url(#clipPath15)"
     id="path257"
     inkscape:connector-curvature="0"
     style="fill:none"
     transform="translate(620,730)" />
  <text
     x="14"
     font-size="14"
     y="24"
     clip-path="url(#clipPath15)"
     xml:space="preserve"
     id="text259"
     style="font-size:14px;font-family:sans-serif;stroke:none"
     transform="translate(620,730)">[ne]</text>
  <path
     d="m 180.5,10.5 -170,0"
     clip-path="url(#clipPath16)"
     id="path263"
     inkscape:connector-curvature="0"
     style="fill:none"
     transform="translate(310,230)" />
  <path
     d="m 10.5,10.5 0,590"
     clip-path="url(#clipPath16)"
     id="path265"
     inkscape:connector-curvature="0"
     style="fill:none"
     transform="translate(310,230)" />
  <path
     d="m 10.5,600.5 310,0"
     clip-path="url(#clipPath16)"
     id="path267"
     inkscape:connector-curvature="0"
     style="fill:none"
     transform="translate(310,230)" />
  <path
     d="m 320.5,600.5 0,-20"
     clip-path="url(#clipPath16)"
     id="path269"
     inkscape:connector-curvature="0"
     style="fill:none"
     transform="translate(310,230)" />
  <path
     d="M 169.2417,4 180.5,10.5 169.2417,17"
     clip-path="url(#clipPath16)"
     id="path271"
     inkscape:connector-curvature="0"
     style="fill:none"
     transform="translate(310,230)" />
  <path
     d="m 10.5,50.5 0,-40"
     clip-path="url(#clipPath17)"
     id="path275"
     inkscape:connector-curvature="0"
     style="fill:none"
     transform="translate(620,610)" />
  <path
     d="M 17,39.2417 10.5,50.5 4,39.2417"
     clip-path="url(#clipPath17)"
     id="path277"
     inkscape:connector-curvature="0"
     style="fill:none"
     transform="translate(620,610)" />
  <text
     x="14"
     font-size="14"
     y="34"
     clip-path="url(#clipPath17)"
     xml:space="preserve"
     id="text279"
     style="font-size:14px;font-family:sans-serif;stroke:none"
     transform="translate(620,610)">[ne]</text>
  <path
     d="m 10.5,10.5 80,0"
     clip-path="url(#clipPath18)"
     id="path283"
     inkscape:connector-curvature="0"
     style="fill:none"
     transform="translate(760,550)" />
  <path
     d="m 90.5,10.5 0,40"
     clip-path="url(#clipPath18)"
     id="path285"
     inkscape:connector-curvature="0"
     style="fill:none"
     transform="translate(760,550)" />
  <path
     d="M 21.7583,17 10.5,10.5 21.7583,4"
     clip-path="url(#clipPath18)"
     id="path287"
     inkscape:connector-curvature="0"
     style="fill:none"
     transform="translate(760,550)" />
  <path
     d="m 210.5,10.5 0,80"
     clip-path="url(#clipPath19)"
     id="path291"
     inkscape:connector-curvature="0"
     style="fill:none"
     transform="translate(640,630)" />
  <path
     d="m 210.5,90.5 -200,0"
     clip-path="url(#clipPath19)"
     id="path293"
     inkscape:connector-curvature="0"
     style="fill:none"
     transform="translate(640,630)" />
  <path
     d="M 204,21.7583 210.5,10.5 217,21.7583"
     clip-path="url(#clipPath19)"
     id="path295"
     inkscape:connector-curvature="0"
     style="fill:none"
     transform="translate(640,630)" />
  <text
     x="29"
     font-size="14"
     y="103.9688"
     clip-path="url(#clipPath19)"
     xml:space="preserve"
     id="text297"
     style="font-size:14px;font-family:sans-serif;stroke:none"
     transform="translate(640,630)">[ano]</text>
  <path
     d="m 10.5,40.5 0,-30"
     clip-path="url(#clipPath20)"
     id="path301"
     inkscape:connector-curvature="0"
     style="fill:none"
     transform="translate(620,500)" />
  <path
     d="M 17,29.2417 10.5,40.5 4,29.2417"
     clip-path="url(#clipPath20)"
     id="path303"
     inkscape:connector-curvature="0"
     style="fill:none"
     transform="translate(620,500)" />
  <path
     d="m 150.5,10.5 -140,0"
     clip-path="url(#clipPath21)"
     id="path307"
     inkscape:connector-curvature="0"
     style="fill:none"
     transform="translate(370,50)" />
  <path
     d="M 139.2417,4 150.5,10.5 139.2417,17"
     clip-path="url(#clipPath21)"
     id="path309"
     inkscape:connector-curvature="0"
     style="fill:none"
     transform="translate(370,50)" />
  <text
     x="29"
     font-size="14"
     y="23.9688"
     clip-path="url(#clipPath21)"
     xml:space="preserve"
     id="text311"
     style="font-size:14px;font-family:sans-serif;stroke:none"
     transform="translate(370,50)">START</text>
  <path
     d="m 10.5,70.5 0,-60"
     clip-path="url(#clipPath22)"
     id="path315"
     inkscape:connector-curvature="0"
     style="fill:none"
     transform="translate(400,590)" />
  <path
     d="m 10.5,10.5 200,0"
     clip-path="url(#clipPath22)"
     id="path317"
     inkscape:connector-curvature="0"
     style="fill:none"
     transform="translate(400,590)" />
  <path
     d="M 17,59.2417 10.5,70.5 4,59.2417"
     clip-path="url(#clipPath22)"
     id="path319"
     inkscape:connector-curvature="0"
     style="fill:none"
     transform="translate(400,590)" />
  <text
     x="160.7207"
     font-size="14"
     y="23.9688"
     clip-path="url(#clipPath22)"
     xml:space="preserve"
     id="text321"
     style="font-size:14px;font-family:sans-serif;stroke:none"
     transform="translate(400,590)">[ano]</text>
  <path
     d="m 10.5,40.5 0,-30"
     clip-path="url(#clipPath15)"
     id="path325"
     inkscape:connector-curvature="0"
     style="fill:none"
     transform="translate(620,430)" />
  <path
     d="M 17,29.2417 10.5,40.5 4,29.2417"
     clip-path="url(#clipPath15)"
     id="path327"
     inkscape:connector-curvature="0"
     style="fill:none"
     transform="translate(620,430)" />
  <text
     x="14"
     font-size="14"
     y="24"
     clip-path="url(#clipPath15)"
     xml:space="preserve"
     id="text329"
     style="font-size:14px;font-family:sans-serif;stroke:none"
     transform="translate(620,430)">[ne]</text>
  <path
     d="m 10.5,10.5 0,160"
     clip-path="url(#clipPath23)"
     id="path333"
     inkscape:connector-curvature="0"
     style="fill:none"
     transform="translate(500,250)" />
  <path
     d="m 10.5,170.5 100,0"
     clip-path="url(#clipPath23)"
     id="path335"
     inkscape:connector-curvature="0"
     style="fill:none"
     transform="translate(500,250)" />
  <path
     d="M 4,21.7583 10.5,10.5 17,21.7583"
     clip-path="url(#clipPath23)"
     id="path337"
     inkscape:connector-curvature="0"
     style="fill:none"
     transform="translate(500,250)" />
  <text
     x="60.720699"
     font-size="14"
     y="183.9688"
     clip-path="url(#clipPath23)"
     xml:space="preserve"
     id="text339"
     style="font-size:14px;font-family:sans-serif;stroke:none"
     transform="translate(500,250)">[ano]</text>
  <path
     d="m 10.5,70.5 0,-60"
     clip-path="url(#clipPath24)"
     id="path343"
     inkscape:connector-curvature="0"
     style="fill:none"
     transform="translate(620,290)" />
  <path
     d="M 17,59.2417 10.5,70.5 4,59.2417"
     clip-path="url(#clipPath24)"
     id="path345"
     inkscape:connector-curvature="0"
     style="fill:none"
     transform="translate(620,290)" />
  <text
     x="14"
     font-size="14"
     y="38.9688"
     clip-path="url(#clipPath24)"
     xml:space="preserve"
     id="text347"
     style="font-size:14px;font-family:sans-serif;stroke:none"
     transform="translate(620,290)">[ne]</text>
  <path
     d="m 10.5,40.5 0,-30"
     clip-path="url(#clipPath20)"
     id="path351"
     inkscape:connector-curvature="0"
     style="fill:none"
     transform="translate(620,180)" />
  <path
     d="M 17,29.2417 10.5,40.5 4,29.2417"
     clip-path="url(#clipPath20)"
     id="path353"
     inkscape:connector-curvature="0"
     style="fill:none"
     transform="translate(620,180)" />
  <path
     d="m 10.5,40.5 0,-30"
     clip-path="url(#clipPath25)"
     id="path357"
     inkscape:connector-curvature="0"
     style="fill:none"
     transform="translate(620,110)" />
  <path
     d="M 17,29.2417 10.5,40.5 4,29.2417"
     clip-path="url(#clipPath25)"
     id="path359"
     inkscape:connector-curvature="0"
     style="fill:none"
     transform="translate(620,110)" />
  <text
     x="14"
     font-size="14"
     y="24"
     clip-path="url(#clipPath25)"
     xml:space="preserve"
     id="text361"
     style="font-size:14px;font-family:sans-serif;stroke:none"
     transform="translate(620,110)">[nalezen]</text>
  <path
     d="m 10.5,30.5 0,-20"
     clip-path="url(#clipPath26)"
     id="path365"
     inkscape:connector-curvature="0"
     style="fill:none"
     transform="translate(620,10)" />
  <path
     d="m 10.5,10.5 230,0"
     clip-path="url(#clipPath26)"
     id="path367"
     inkscape:connector-curvature="0"
     style="fill:none"
     transform="translate(620,10)" />
  <path
     d="m 240.5,10.5 0,260"
     clip-path="url(#clipPath26)"
     id="path369"
     inkscape:connector-curvature="0"
     style="fill:none"
     transform="translate(620,10)" />
  <path
     d="m 240.5,270.5 -210,0"
     clip-path="url(#clipPath26)"
     id="path371"
     inkscape:connector-curvature="0"
     style="fill:none"
     transform="translate(620,10)" />
  <path
     d="M 17,19.2417 10.5,30.5 4,19.2417"
     clip-path="url(#clipPath26)"
     id="path373"
     inkscape:connector-curvature="0"
     style="fill:none"
     transform="translate(620,10)" />
  <text
     x="49"
     font-size="14"
     y="283.96881"
     clip-path="url(#clipPath26)"
     xml:space="preserve"
     id="text375"
     style="font-size:14px;font-family:sans-serif;stroke:none"
     transform="translate(620,10)">[ano]</text>
  <path
     d="m 10.5,60.5 0,-50"
     clip-path="url(#clipPath27)"
     id="path379"
     inkscape:connector-curvature="0"
     style="fill:none"
     transform="translate(460,90)" />
  <path
     d="m 10.5,10.5 140,0"
     clip-path="url(#clipPath27)"
     id="path381"
     inkscape:connector-curvature="0"
     style="fill:none"
     transform="translate(460,90)" />
  <path
     d="M 17,49.2417 10.5,60.5 4,49.2417"
     clip-path="url(#clipPath27)"
     id="path383"
     inkscape:connector-curvature="0"
     style="fill:none"
     transform="translate(460,90)" />
  <text
     x="59.465801"
     font-size="14"
     y="23.9688"
     clip-path="url(#clipPath27)"
     xml:space="preserve"
     id="text385"
     style="font-size:14px;font-family:sans-serif;stroke:none"
     transform="translate(460,90)">[nenalezen]</text>
</svg>
